<?xml version="1.0" standalone="no"?>
<!DOCTYPE svg PUBLIC "-//W3C//DTD SVG 20010904//EN"
 "http://www.w3.org/TR/2001/REC-SVG-20010904/DTD/svg10.dtd">
<svg version="1.0" xmlns="http://www.w3.org/2000/svg"
 width="580.000000pt" height="580.000000pt" viewBox="0 0 580.000000 580.000000"
 preserveAspectRatio="xMidYMid meet">
<metadata>
Created by potrace 1.11, written by Peter Selinger 2001-2013
</metadata>
<g transform="translate(0.000000,580.000000) scale(0.100000,-0.100000)"
fill="#000000" stroke="none">
<path d="M2710 5768 c-41 -11 -79 -21 -85 -22 -5 -1 -32 -12 -59 -24 -27 -12
-52 -22 -57 -22 -5 0 -9 -5 -9 -12 0 -6 -3 -9 -6 -5 -11 11 -127 -75 -199
-147 -102 -103 -139 -159 -197 -296 l-11 -25 -616 -1 c-339 0 -638 -3 -666 -7
-256 -33 -461 -238 -492 -492 -9 -67 -9 -4137 0 -4195 36 -249 241 -454 487
-487 25 -4 979 -6 2120 -7 2284 0 2126 -4 2252 60 87 44 200 142 214 187 3 9
9 17 13 17 4 0 19 24 33 52 23 46 35 83 55 163 3 11 6 953 7 2094 1 1563 -2
2091 -11 2145 -28 168 -150 329 -311 410 -117 59 -118 59 -814 60 -405 1 -640
5 -646 11 -4 6 -19 35 -32 65 -104 233 -349 429 -605 483 -99 21 -272 18 -365
-5z m1008 -1027 l43 -22 -185 -362 c-101 -199 -219 -432 -263 -517 -43 -85
-81 -156 -85 -158 -5 -2 -8 -10 -8 -18 0 -7 -9 -28 -20 -46 -26 -43 -25 -55 3
-57 82 -4 107 -4 113 1 3 4 12 4 20 1 22 -8 304 -9 304 -1 0 4 6 5 13 3 17 -7
147 -11 147 -5 0 4 86 4 100 0 15 -5 161 -1 170 5 5 3 10 3 10 -2 0 -4 27 -7
60 -7 l60 1 0 -221 0 -221 -66 -130 c-230 -454 -358 -702 -366 -712 -6 -7 -7
-13 -3 -13 4 0 3 -6 -3 -12 -5 -7 -70 -130 -142 -273 -73 -143 -141 -275 -152
-292 -11 -18 -16 -33 -11 -33 4 0 4 -4 -2 -8 -5 -4 -42 -70 -81 -147 -39 -77
-153 -302 -254 -500 -101 -198 -189 -370 -194 -382 -6 -13 -15 -23 -21 -23
-11 0 -364 178 -378 190 -9 8 8 44 185 390 69 135 194 380 278 545 84 165 210
413 280 550 461 903 429 838 425 846 -2 3 -172 5 -377 5 l-373 -1 -36 -67
c-21 -38 -35 -68 -32 -68 3 0 1 -6 -5 -13 -12 -14 -102 -189 -269 -522 -58
-115 -110 -211 -114 -213 -5 -2 -9 -9 -9 -16 0 -6 -18 -47 -41 -91 -22 -44
-74 -146 -115 -227 -42 -82 -78 -148 -82 -148 -8 0 -174 82 -182 90 -3 3 -51
28 -106 55 l-102 50 32 65 c75 153 379 746 389 758 5 6 6 12 2 12 -4 0 -3 6 3
13 19 24 162 309 158 316 -3 4 -244 7 -536 6 -293 0 -534 4 -537 8 -4 7 -5
331 -1 402 0 6 -1 17 -3 25 -2 8 1 14 8 13 17 -4 55 -4 181 -4 9 0 41 1 71 1
29 0 56 -1 58 -4 3 -3 16 -1 29 4 13 5 24 6 24 2 0 -4 33 -6 72 -5 62 1 196 3
261 2 21 0 101 0 125 0 9 0 41 1 71 1 29 0 56 -1 58 -4 3 -3 16 -1 29 4 13 5
24 6 24 2 0 -4 66 -6 147 -5 129 2 149 4 161 20 12 16 77 143 221 428 25 50
50 93 56 97 5 4 6 8 2 8 -4 0 5 24 21 53 16 28 69 131 117 227 49 96 92 177
97 178 4 2 8 9 8 16 0 12 127 267 156 313 14 23 10 24 362 -156z"/>
</g>
</svg>
